<?xml version="1.0" encoding="UTF-8" standalone="no"?>
<!-- Created with Inkscape (http://www.inkscape.org/) -->

<svg
   xmlns:dc="http://purl.org/dc/elements/1.1/"
   xmlns:cc="http://creativecommons.org/ns#"
   xmlns:rdf="http://www.w3.org/1999/02/22-rdf-syntax-ns#"
   xmlns:svg="http://www.w3.org/2000/svg"
   xmlns="http://www.w3.org/2000/svg"
   xmlns:sodipodi="http://sodipodi.sourceforge.net/DTD/sodipodi-0.dtd"
   xmlns:inkscape="http://www.inkscape.org/namespaces/inkscape"
   width="256"
   height="256"
   id="svg3216"
   version="1.1"
   inkscape:version="0.48.3.1 r9886"
   sodipodi:docname="capacitacion.svg">
  <defs
     id="defs3218" />
  <sodipodi:namedview
     id="base"
     pagecolor="#000000"
     bordercolor="#666666"
     borderopacity="1.0"
     inkscape:pageopacity="0.31372549"
     inkscape:pageshadow="2"
     inkscape:zoom="2.7226562"
     inkscape:cx="62.806313"
     inkscape:cy="128"
     inkscape:document-units="px"
     inkscape:current-layer="layer1"
     showgrid="false"
     inkscape:window-width="1391"
     inkscape:window-height="876"
     inkscape:window-x="49"
     inkscape:window-y="24"
     inkscape:window-maximized="1" />
  <metadata
     id="metadata3221">
    <rdf:RDF>
      <cc:Work
         rdf:about="">
        <dc:format>image/svg+xml</dc:format>
        <dc:type
           rdf:resource="http://purl.org/dc/dcmitype/StillImage" />
        <dc:title></dc:title>
      </cc:Work>
    </rdf:RDF>
  </metadata>
  <g
     inkscape:label="Layer 1"
     inkscape:groupmode="layer"
     id="layer1"
     transform="translate(0,-796.36218)">
    <rect
       style="fill:#cccccc;fill-opacity:1;stroke:#ffffff;stroke-width:7.36761465;stroke-miterlimit:4;stroke-opacity:1;stroke-dasharray:none"
       id="rect3224"
       width="170.94733"
       height="114.68829"
       x="101.06171"
       y="762.24597"
       transform="matrix(0.92517475,0.37954141,0,1,0,0)" />
    <path
       id="rect3241"
       style="fill:#ff0000;fill-opacity:1;stroke:#ffffff;stroke-width:7.08661417;stroke-miterlimit:4;stroke-opacity:1;stroke-dasharray:none"
       d="m 106.93615,883.43146 24.08327,0 c 3.56399,0 6.4332,2.86921 6.4332,6.4332 0,3.564 -2.86921,6.43321 -6.4332,6.43321 l -24.08327,0 c -3.564,0 -6.43321,-2.86921 -6.43321,-6.43321 0,-3.56399 2.86921,-6.4332 6.43321,-6.4332 z m -53.099622,0.22916 29.98667,0 c 6.245698,0 11.273813,5.02812 11.273813,11.27382 l 0,34.17372 c 0,6.24571 -5.028115,11.27399 -11.273813,11.27399 l -29.98667,0 c -6.245694,0 -11.273816,-5.02828 -11.273816,-11.27399 l 0,-34.17372 c 0,-6.2457 5.028122,-11.27382 11.273816,-11.27382 z M 92.94258,853.53837 c 0,12.93916 -10.489256,23.42842 -23.428402,23.42842 -12.939148,0 -23.428398,-10.48926 -23.428398,-23.42842 0,-12.93913 10.48925,-23.42838 23.428398,-23.42838 12.939146,0 23.428402,10.48925 23.428402,23.42838 z"
       inkscape:connector-curvature="0" />
    <path
       id="path3235"
       style="fill:#ff0000;fill-opacity:1;stroke:#ffffff;stroke-width:7.08661417;stroke-miterlimit:4;stroke-opacity:1;stroke-dasharray:none"
       d="m 101.38361,980.73282 32.95566,0 c 6.86408,0 12.39004,5.52596 12.39004,12.39 l 0,37.55738 c 0,6.8641 -5.52596,12.3902 -12.39004,12.3902 l -32.95566,0 c -6.864072,0 -12.390032,-5.5261 -12.390032,-12.3902 l 0,-37.55738 c 0,-6.86404 5.52596,-12.39 12.390032,-12.39 z m 42.97795,-33.10466 c 0,14.22027 -11.5278,25.74807 -25.74805,25.74807 -14.22025,0 -25.748052,-11.5278 -25.748052,-25.74807 0,-14.22024 11.527802,-25.74803 25.748052,-25.74803 14.22025,0 25.74805,11.52779 25.74805,25.74803 z"
       inkscape:connector-curvature="0" />
    <path
       inkscape:connector-curvature="0"
       d="m 181.08519,981.10011 32.95566,0 c 6.86408,0 12.39004,5.52596 12.39004,12.39 l 0,37.55739 c 0,6.8641 -5.52596,12.3902 -12.39004,12.3902 l -32.95566,0 c -6.86407,0 -12.39003,-5.5261 -12.39003,-12.3902 l 0,-37.55739 c 0,-6.86404 5.52596,-12.39 12.39003,-12.39 z m 42.97795,-33.10466 c 0,14.22027 -11.5278,25.74807 -25.74805,25.74807 -14.22025,0 -25.74805,-11.5278 -25.74805,-25.74807 0,-14.22024 11.5278,-25.74803 25.74805,-25.74803 14.22025,0 25.74805,11.52779 25.74805,25.74803 z"
       style="fill:#ff0000;fill-opacity:1;stroke:#ffffff;stroke-width:7.08661417;stroke-miterlimit:4;stroke-opacity:1;stroke-dasharray:none"
       id="path3237" />
    <path
       inkscape:connector-curvature="0"
       d="m 27.191355,979.99824 32.955661,0 c 6.86408,0 12.39004,5.52596 12.39004,12.39 l 0,37.55736 c 0,6.8641 -5.52596,12.3902 -12.39004,12.3902 l -32.955661,0 c -6.86407,0 -12.39003,-5.5261 -12.39003,-12.3902 l 0,-37.55736 c 0,-6.86404 5.52596,-12.39 12.39003,-12.39 z m 42.977951,-33.10466 c 0,14.22027 -11.5278,25.74807 -25.74805,25.74807 -14.220247,0 -25.748051,-11.5278 -25.748051,-25.74807 0,-14.22024 11.527804,-25.74803 25.748051,-25.74803 14.22025,0 25.74805,11.52779 25.74805,25.74803 z"
       style="fill:#ff0000;fill-opacity:1;stroke:#ffffff;stroke-width:7.08661417;stroke-miterlimit:4;stroke-opacity:1;stroke-dasharray:none"
       id="path3239" />
  </g>
</svg>
