<?xml version="1.0" encoding="UTF-8" standalone="no"?>
<!-- Created with Inkscape (http://www.inkscape.org/) -->

<svg
   xmlns:dc="http://purl.org/dc/elements/1.1/"
   xmlns:cc="http://creativecommons.org/ns#"
   xmlns:rdf="http://www.w3.org/1999/02/22-rdf-syntax-ns#"
   xmlns:svg="http://www.w3.org/2000/svg"
   xmlns="http://www.w3.org/2000/svg"
   xmlns:sodipodi="http://sodipodi.sourceforge.net/DTD/sodipodi-0.dtd"
   xmlns:inkscape="http://www.inkscape.org/namespaces/inkscape"
   width="256"
   height="256"
   id="svg4023"
   version="1.1"
   inkscape:version="0.48.3.1 r9886"
   sodipodi:docname="Nuevo documento 7">
  <defs
     id="defs4025" />
  <sodipodi:namedview
     id="base"
     pagecolor="#ffffff"
     bordercolor="#666666"
     borderopacity="1.0"
     inkscape:pageopacity="0.0"
     inkscape:pageshadow="2"
     inkscape:zoom="3.5507812"
     inkscape:cx="75.476348"
     inkscape:cy="126.86422"
     inkscape:document-units="px"
     inkscape:current-layer="layer1"
     showgrid="false"
     inkscape:window-width="1855"
     inkscape:window-height="1056"
     inkscape:window-x="65"
     inkscape:window-y="24"
     inkscape:window-maximized="1" />
  <metadata
     id="metadata4028">
    <rdf:RDF>
      <cc:Work
         rdf:about="">
        <dc:format>image/svg+xml</dc:format>
        <dc:type
           rdf:resource="http://purl.org/dc/dcmitype/StillImage" />
        <dc:title></dc:title>
      </cc:Work>
    </rdf:RDF>
  </metadata>
  <g
     inkscape:label="Capa 1"
     inkscape:groupmode="layer"
     id="layer1"
     transform="translate(0,-796.36218)">
    <path
       id="path4048"
       style="fill:#ff0000;stroke:#ffffff;stroke-width:7.08661417;stroke-miterlimit:4;stroke-dasharray:none"
       d="m 89.839382,855.92652 c 5.85083,0 10.561058,4.71023 10.561058,10.56105 l 0,34.35864 c 0,5.85083 -4.710228,10.56113 -10.561058,10.56113 -5.85082,0 -10.561049,-4.7103 -10.561049,-10.56113 l 0,-34.35864 c 0,-5.85082 4.710229,-10.56105 10.561049,-10.56105 z m 76.321238,0 c 5.85082,0 10.56105,4.71023 10.56105,10.56105 l 0,34.35864 c 0,5.85083 -4.71023,10.56113 -10.56105,10.56113 -5.85083,0 -10.56106,-4.7103 -10.56106,-10.56113 l 0,-34.35864 c 0,-5.85082 4.71023,-10.56105 10.56106,-10.56105 z m -13.23653,-29.14849 c 0,13.68742 -11.09584,24.78328 -24.78327,24.78328 -13.68742,0 -24.78327,-11.09586 -24.78327,-24.78328 0,-13.68743 11.09585,-24.78328 24.78327,-24.78328 13.68743,0 24.78327,11.09585 24.78327,24.78328 z m -36.21451,25.90979 22.29923,0 c 8.87923,0 16.0275,7.14827 16.0275,16.02751 l 0,48.20901 c 0,8.8793 -7.14827,16.0275 -16.0275,16.0275 l -22.29923,0 c -8.87923,0 -16.0275,-7.1482 -16.0275,-16.0275 l 0,-48.20901 c 0,-8.87924 7.14827,-16.02751 16.0275,-16.02751 z"
       inkscape:connector-curvature="0" />
    <path
       id="rect4039"
       style="fill:#ff0000;stroke:#ffffff;stroke-width:7.08661413;stroke-miterlimit:4"
       d="m 17.320126,956.32696 c 5.850825,0 10.561056,4.71023 10.561056,10.56105 l 0,34.35859 c 0,5.8508 -4.710231,10.5611 -10.561056,10.5611 -5.850825,0 -10.5610564,-4.7103 -10.5610564,-10.5611 l 0,-34.35859 c 0,-5.85082 4.7102314,-10.56105 10.5610564,-10.56105 z m 76.32124,0 c 5.850822,0 10.561054,4.71023 10.561054,10.56105 l 0,34.35859 c 0,5.8508 -4.710232,10.5611 -10.561054,10.5611 -5.85083,0 -10.56106,-4.7103 -10.56106,-10.5611 l 0,-34.35859 c 0,-5.85082 4.71023,-10.56105 10.56106,-10.56105 z m -13.23653,-29.14849 c 0,13.68742 -11.095846,24.78328 -24.783272,24.78328 -13.687426,0 -24.783278,-11.09586 -24.783278,-24.78328 0,-13.68743 11.095852,-24.78328 24.783278,-24.78328 13.687426,0 24.783272,11.09585 24.783272,24.78328 z m -36.214512,25.90979 22.299224,0 c 8.879238,0 16.027508,7.14827 16.027508,16.02751 l 0,48.20893 c 0,8.8793 -7.14827,16.0275 -16.027508,16.0275 l -22.299224,0 c -8.879239,0 -16.027506,-7.1482 -16.027506,-16.0275 l 0,-48.20893 c 0,-8.87924 7.148267,-16.02751 16.027506,-16.02751 z"
       inkscape:connector-curvature="0" />
    <path
       inkscape:connector-curvature="0"
       d="m 164.89328,956.32691 c 5.85083,0 10.56106,4.71023 10.56106,10.56105 l 0,34.35864 c 0,5.8509 -4.71023,10.5612 -10.56106,10.5612 -5.85082,0 -10.56105,-4.7103 -10.56105,-10.5612 l 0,-34.35864 c 0,-5.85082 4.71023,-10.56105 10.56105,-10.56105 z m 76.32124,0 c 5.85082,0 10.56105,4.71023 10.56105,10.56105 l 0,34.35864 c 0,5.8509 -4.71023,10.5612 -10.56105,10.5612 -5.85083,0 -10.56106,-4.7103 -10.56106,-10.5612 l 0,-34.35864 c 0,-5.85082 4.71023,-10.56105 10.56106,-10.56105 z m -13.23653,-29.14849 c 0,13.68742 -11.09584,24.78328 -24.78327,24.78328 -13.68742,0 -24.78328,-11.09586 -24.78328,-24.78328 0,-13.68743 11.09586,-24.78328 24.78328,-24.78328 13.68743,0 24.78327,11.09585 24.78327,24.78328 z m -36.21451,25.90979 22.29923,0 c 8.87923,0 16.0275,7.14827 16.0275,16.02751 l 0,48.20908 c 0,8.8793 -7.14827,16.0275 -16.0275,16.0275 l -22.29923,0 c -8.87924,0 -16.0275,-7.1482 -16.0275,-16.0275 l 0,-48.20908 c 0,-8.87924 7.14826,-16.02751 16.0275,-16.02751 z"
       style="fill:#ff0000;stroke:#ffffff;stroke-width:7.08661413;stroke-miterlimit:4"
       id="path4046" />
  </g>
</svg>
