<?xml version="1.0" encoding="UTF-8" standalone="no"?>
<!-- Created with Inkscape (http://www.inkscape.org/) -->

<svg
   xmlns:dc="http://purl.org/dc/elements/1.1/"
   xmlns:cc="http://creativecommons.org/ns#"
   xmlns:rdf="http://www.w3.org/1999/02/22-rdf-syntax-ns#"
   xmlns:svg="http://www.w3.org/2000/svg"
   xmlns="http://www.w3.org/2000/svg"
   xmlns:sodipodi="http://sodipodi.sourceforge.net/DTD/sodipodi-0.dtd"
   xmlns:inkscape="http://www.inkscape.org/namespaces/inkscape"
   width="640"
   height="200"
   id="svg2"
   version="1.1"
   inkscape:version="0.48.3.1 r9886"
   sodipodi:docname="zinlim.0.9.svg">
  <defs
     id="defs4">
    <inkscape:perspective
       sodipodi:type="inkscape:persp3d"
       inkscape:vp_x="140.68223 : 500.26731 : 1"
       inkscape:vp_y="0 : 877.28576 : 0"
       inkscape:vp_z="1009.1951 : 500.26731 : 1"
       inkscape:persp3d-origin="574.93868 : 388.41338 : 1"
       id="perspective4175" />
    <filter
       id="filter3071"
       inkscape:menu-tooltip="Draws a black outline around"
       inkscape:menu="ABCs"
       inkscape:label="Black outline"
       color-interpolation-filters="sRGB">
      <feGaussianBlur
         id="feGaussianBlur3073"
         stdDeviation="2"
         in="SourceAlpha"
         result="result0" />
      <feComposite
         id="feComposite3075"
         in2="result0"
         result="result3"
         operator="arithmetic"
         in="SourceGraphic"
         k2="1"
         k3="10"
         k1="0"
         k4="0" />
      <feComposite
         id="feComposite3077"
         in2="result3"
         operator="in"
         in="result3"
         result="result4" />
    </filter>
    <filter
       id="filter4104"
       inkscape:menu-tooltip="Draws a black outline around"
       inkscape:menu="ABCs"
       inkscape:label="Black outline"
       color-interpolation-filters="sRGB">
      <feGaussianBlur
         id="feGaussianBlur4106"
         stdDeviation="2"
         in="SourceAlpha"
         result="result0" />
      <feComposite
         id="feComposite4108"
         in2="result0"
         result="result3"
         operator="arithmetic"
         in="SourceGraphic"
         k2="1"
         k3="10"
         k1="0"
         k4="0" />
      <feComposite
         id="feComposite4110"
         in2="result3"
         operator="in"
         in="result3"
         result="result4" />
    </filter>
    <filter
       id="filter3915"
       inkscape:label="Black outline"
       inkscape:menu="ABCs"
       inkscape:menu-tooltip="Draws a black outline around"
       color-interpolation-filters="sRGB">
      <feGaussianBlur
         id="feGaussianBlur3917"
         result="result0"
         in="SourceAlpha"
         stdDeviation="6" />
      <feSpecularLighting
         id="feSpecularLighting3919"
         specularExponent="25"
         specularConstant="1"
         surfaceScale="10"
         lighting-color="#ffffff"
         result="result1"
         in="result0">
        <feDistantLight
           id="feDistantLight3921"
           azimuth="235"
           elevation="45" />
      </feSpecularLighting>
      <feComposite
         id="feComposite3923"
         in2="result1"
         k3="1"
         k2="1"
         operator="arithmetic"
         result="result4"
         in="SourceGraphic"
         k1="0"
         k4="0" />
      <feComposite
         id="feComposite3925"
         in2="SourceAlpha"
         operator="in"
         result="fbSourceGraphic"
         in="result4" />
      <feColorMatrix
         result="fbSourceGraphicAlpha"
         in="fbSourceGraphic"
         values="0 0 0 -1 0 0 0 0 -1 0 0 0 0 -1 0 0 0 0 1 0"
         id="feColorMatrix3947" />
      <feGaussianBlur
         id="feGaussianBlur3949"
         stdDeviation="2"
         in="fbSourceGraphicAlpha"
         result="result0" />
      <feComposite
         id="feComposite3951"
         in2="result0"
         result="result3"
         operator="arithmetic"
         in="fbSourceGraphic"
         k2="1"
         k3="10"
         k1="0"
         k4="0" />
      <feComposite
         id="feComposite3953"
         in2="result3"
         operator="in"
         in="result3"
         result="result4" />
    </filter>
    <filter
       id="filter3939"
       inkscape:menu-tooltip="Draws a black outline around"
       inkscape:menu="ABCs"
       inkscape:label="Black outline"
       color-interpolation-filters="sRGB">
      <feGaussianBlur
         id="feGaussianBlur3941"
         stdDeviation="2"
         in="SourceAlpha"
         result="result0" />
      <feComposite
         id="feComposite3943"
         in2="result0"
         result="result3"
         operator="arithmetic"
         in="SourceGraphic"
         k2="1"
         k3="10"
         k1="0"
         k4="0" />
      <feComposite
         id="feComposite3945"
         in2="result3"
         operator="in"
         in="result3"
         result="result4" />
    </filter>
    <filter
       id="filter3991"
       inkscape:menu-tooltip="Draws a black outline around"
       inkscape:menu="ABCs"
       inkscape:label="Black outline"
       color-interpolation-filters="sRGB">
      <feGaussianBlur
         id="feGaussianBlur3993"
         stdDeviation="2"
         in="SourceAlpha"
         result="result0" />
      <feComposite
         id="feComposite3995"
         in2="result0"
         result="result3"
         operator="arithmetic"
         in="SourceGraphic"
         k2="1"
         k3="10"
         k1="0"
         k4="0" />
      <feComposite
         id="feComposite3997"
         in2="result3"
         operator="in"
         in="result3"
         result="result4" />
    </filter>
    <filter
       id="filter4037"
       height="1.3"
       width="1.3"
       y="-0.15000001"
       x="-0.15000001"
       inkscape:menu-tooltip="Van Gogh painting effect for bitmaps"
       inkscape:menu="Distort"
       inkscape:label="Pixel smear"
       color-interpolation-filters="sRGB">
      <feTurbulence
         id="feTurbulence4039"
         type="fractalNoise"
         numOctaves="3"
         baseFrequency="0.25 0.4"
         seed="5" />
      <feColorMatrix
         id="feColorMatrix4041"
         result="result5"
         values="1 0 0 0 0 0 1 0 0 0 0 0 1 0 0 0 0 0 1 0 " />
      <feComposite
         id="feComposite4043"
         in2="result5"
         in="SourceGraphic"
         operator="in" />
      <feMorphology
         id="feMorphology4045"
         operator="dilate"
         radius="1.5"
         result="result3" />
      <feTurbulence
         id="feTurbulence4047"
         numOctaves="5"
         baseFrequency="0.03"
         type="fractalNoise"
         seed="7" />
      <feGaussianBlur
         id="feGaussianBlur4049"
         stdDeviation="0.5"
         result="result91" />
      <feDisplacementMap
         id="feDisplacementMap4051"
         in2="result91"
         in="result3"
         xChannelSelector="R"
         yChannelSelector="G"
         scale="27"
         result="result4" />
      <feComposite
         id="feComposite4053"
         in2="result4"
         in="result4"
         k3="0.8"
         k1="1.3"
         result="result2"
         operator="arithmetic"
         k2="0"
         k4="0" />
      <feBlend
         id="feBlend4055"
         in2="result2"
         mode="screen"
         in="result2" />
    </filter>
    <filter
       id="filter4233"
       inkscape:label="Metallized paint"
       inkscape:menu="Materials"
       inkscape:menu-tooltip="Metallized effect with a soft lighting, slightly translucent at the edges"
       height="1.1"
       width="1.1"
       y="-0.050000001"
       x="-0.050000001"
       color-interpolation-filters="sRGB">
      <feGaussianBlur
         id="feGaussianBlur4235"
         stdDeviation="1"
         result="result1" />
      <feComposite
         id="feComposite4237"
         in2="result1"
         in="result1"
         result="result4"
         operator="in" />
      <feBlend
         id="feBlend4239"
         in2="result4"
         in="result1"
         mode="screen"
         result="result5" />
      <feGaussianBlur
         id="feGaussianBlur4241"
         stdDeviation="8"
         result="result6"
         in="result5" />
      <feComposite
         id="feComposite4243"
         in2="result5"
         operator="atop"
         in="result6"
         result="result8" />
      <feComposite
         id="feComposite4245"
         in2="result8"
         operator="in"
         result="fbSourceGraphic"
         in="result6" />
      <feGaussianBlur
         id="feGaussianBlur4247"
         result="result0"
         in="fbSourceGraphic"
         stdDeviation="2.5" />
      <feSpecularLighting
         id="feSpecularLighting4249"
         specularExponent="45"
         specularConstant="1.5"
         surfaceScale="1"
         lighting-color="#ffffff"
         result="result1"
         in="result0">
        <fePointLight
           id="fePointLight4251"
           z="21000"
           y="-9000"
           x="-6000" />
      </feSpecularLighting>
      <feComposite
         id="feComposite4253"
         in2="fbSourceGraphic"
         operator="in"
         result="result2"
         in="result1" />
      <feComposite
         id="feComposite4255"
         in2="result2"
         k3="1"
         k2="1"
         operator="arithmetic"
         result="result4"
         in="fbSourceGraphic"
         k1="0"
         k4="0" />
      <feComposite
         id="feComposite4257"
         in2="result4"
         operator="in"
         result="result91" />
      <feBlend
         id="feBlend4259"
         in2="result91"
         mode="multiply" />
    </filter>
    <filter
       id="filter4261"
       height="1.3"
       width="1.3"
       y="-0.15000001"
       x="-0.15000001"
       inkscape:menu-tooltip="Van Gogh painting effect for bitmaps"
       inkscape:menu="Distort"
       inkscape:label="Pixel smear"
       color-interpolation-filters="sRGB">
      <feTurbulence
         id="feTurbulence4263"
         type="fractalNoise"
         numOctaves="3"
         baseFrequency="0.25 0.4"
         seed="5" />
      <feColorMatrix
         id="feColorMatrix4265"
         result="result5"
         values="1 0 0 0 0 0 1 0 0 0 0 0 1 0 0 0 0 0 1 0 " />
      <feComposite
         id="feComposite4267"
         in2="result5"
         in="SourceGraphic"
         operator="in" />
      <feMorphology
         id="feMorphology4269"
         operator="dilate"
         radius="1.5"
         result="result3" />
      <feTurbulence
         id="feTurbulence4271"
         numOctaves="5"
         baseFrequency="0.03"
         type="fractalNoise"
         seed="7" />
      <feGaussianBlur
         id="feGaussianBlur4273"
         stdDeviation="0.5"
         result="result91" />
      <feDisplacementMap
         id="feDisplacementMap4275"
         in2="result91"
         in="result3"
         xChannelSelector="R"
         yChannelSelector="G"
         scale="27"
         result="result4" />
      <feComposite
         id="feComposite4277"
         in2="result4"
         in="result4"
         k3="0.8"
         k1="1.3"
         result="result2"
         operator="arithmetic"
         k2="0"
         k4="0" />
      <feBlend
         id="feBlend4279"
         in2="result2"
         mode="screen"
         in="result2" />
    </filter>
    <filter
       id="filter4303"
       height="1.3"
       width="1.3"
       y="-0.15000001"
       x="-0.15000001"
       inkscape:menu-tooltip="Van Gogh painting effect for bitmaps"
       inkscape:menu="Distort"
       inkscape:label="Pixel smear"
       color-interpolation-filters="sRGB">
      <feTurbulence
         id="feTurbulence4305"
         type="fractalNoise"
         numOctaves="3"
         baseFrequency="0.25 0.4"
         seed="5" />
      <feColorMatrix
         id="feColorMatrix4307"
         result="result5"
         values="1 0 0 0 0 0 1 0 0 0 0 0 1 0 0 0 0 0 1 0 " />
      <feComposite
         id="feComposite4309"
         in2="result5"
         in="SourceGraphic"
         operator="in" />
      <feMorphology
         id="feMorphology4311"
         operator="dilate"
         radius="1.5"
         result="result3" />
      <feTurbulence
         id="feTurbulence4313"
         numOctaves="5"
         baseFrequency="0.03"
         type="fractalNoise"
         seed="7" />
      <feGaussianBlur
         id="feGaussianBlur4315"
         stdDeviation="0.5"
         result="result91" />
      <feDisplacementMap
         id="feDisplacementMap4317"
         in2="result91"
         in="result3"
         xChannelSelector="R"
         yChannelSelector="G"
         scale="27"
         result="result4" />
      <feComposite
         id="feComposite4319"
         in2="result4"
         in="result4"
         k3="0.8"
         k1="1.3"
         result="result2"
         operator="arithmetic"
         k2="0"
         k4="0" />
      <feBlend
         id="feBlend4321"
         in2="result2"
         mode="screen"
         in="result2" />
    </filter>
    <filter
       id="filter3893"
       inkscape:label="Black outline"
       inkscape:menu="ABCs"
       inkscape:menu-tooltip="Draws a black outline around"
       color-interpolation-filters="sRGB">
      <feGaussianBlur
         id="feGaussianBlur3895"
         result="result0"
         in="SourceAlpha"
         stdDeviation="6" />
      <feSpecularLighting
         id="feSpecularLighting3897"
         specularExponent="25"
         specularConstant="1"
         surfaceScale="10"
         lighting-color="#ffffff"
         result="result1"
         in="result0">
        <feDistantLight
           id="feDistantLight3899"
           azimuth="235"
           elevation="45" />
      </feSpecularLighting>
      <feComposite
         id="feComposite3901"
         in2="result1"
         k3="1"
         k2="1"
         operator="arithmetic"
         result="result4"
         in="SourceGraphic"
         k1="0"
         k4="0" />
      <feComposite
         id="feComposite3903"
         in2="SourceAlpha"
         operator="in"
         result="fbSourceGraphic"
         in="result4" />
      <feColorMatrix
         result="fbSourceGraphicAlpha"
         in="fbSourceGraphic"
         values="0 0 0 -1 0 0 0 0 -1 0 0 0 0 -1 0 0 0 0 1 0"
         id="feColorMatrix3905" />
      <feGaussianBlur
         id="feGaussianBlur3907"
         stdDeviation="2"
         in="fbSourceGraphicAlpha"
         result="result0" />
      <feComposite
         id="feComposite3909"
         in2="result0"
         result="result3"
         operator="arithmetic"
         in="fbSourceGraphic"
         k2="1"
         k3="10"
         k1="0"
         k4="0" />
      <feComposite
         id="feComposite3911"
         in2="result3"
         operator="in"
         in="result3"
         result="result4" />
    </filter>
    <filter
       id="filter3093"
       inkscape:menu-tooltip="Draws a black outline around"
       inkscape:menu="ABCs"
       inkscape:label="Black outline"
       color-interpolation-filters="sRGB">
      <feGaussianBlur
         id="feGaussianBlur3095"
         stdDeviation="2"
         in="SourceAlpha"
         result="result0" />
      <feComposite
         id="feComposite3097"
         in2="result0"
         result="result3"
         operator="arithmetic"
         in="SourceGraphic"
         k2="1"
         k3="10"
         k1="0"
         k4="0" />
      <feComposite
         id="feComposite3099"
         in2="result3"
         operator="in"
         in="result3"
         result="result4" />
    </filter>
    <filter
       id="filter3101"
       inkscape:label="Black outline"
       inkscape:menu="ABCs"
       inkscape:menu-tooltip="Draws a black outline around"
       color-interpolation-filters="sRGB">
      <feGaussianBlur
         id="feGaussianBlur3103"
         result="result0"
         in="SourceAlpha"
         stdDeviation="6" />
      <feSpecularLighting
         id="feSpecularLighting3105"
         specularExponent="25"
         specularConstant="1"
         surfaceScale="10"
         lighting-color="#ffffff"
         result="result1"
         in="result0">
        <feDistantLight
           id="feDistantLight3107"
           azimuth="235"
           elevation="45" />
      </feSpecularLighting>
      <feComposite
         id="feComposite3109"
         in2="result1"
         k3="1"
         k2="1"
         operator="arithmetic"
         result="result4"
         in="SourceGraphic"
         k1="0"
         k4="0" />
      <feComposite
         id="feComposite3111"
         in2="SourceAlpha"
         operator="in"
         result="fbSourceGraphic"
         in="result4" />
      <feColorMatrix
         result="fbSourceGraphicAlpha"
         in="fbSourceGraphic"
         values="0 0 0 -1 0 0 0 0 -1 0 0 0 0 -1 0 0 0 0 1 0"
         id="feColorMatrix3113" />
      <feGaussianBlur
         id="feGaussianBlur3115"
         stdDeviation="2"
         in="fbSourceGraphicAlpha"
         result="result0" />
      <feComposite
         id="feComposite3117"
         in2="result0"
         result="result3"
         operator="arithmetic"
         in="fbSourceGraphic"
         k2="1"
         k3="10"
         k1="0"
         k4="0" />
      <feComposite
         id="feComposite3119"
         in2="result3"
         operator="in"
         in="result3"
         result="result4" />
    </filter>
  </defs>
  <sodipodi:namedview
     id="base"
     pagecolor="#ffffff"
     bordercolor="#666666"
     borderopacity="1.0"
     inkscape:pageopacity="0"
     inkscape:pageshadow="2"
     inkscape:zoom="1.9001722"
     inkscape:cx="320"
     inkscape:cy="128.00001"
     inkscape:document-units="px"
     inkscape:current-layer="layer1"
     showgrid="false"
     inkscape:window-width="1391"
     inkscape:window-height="876"
     inkscape:window-x="49"
     inkscape:window-y="24"
     inkscape:window-maximized="1"
     width="1024px" />
  <metadata
     id="metadata7">
    <rdf:RDF>
      <cc:Work
         rdf:about="">
        <dc:format>image/svg+xml</dc:format>
        <dc:type
           rdf:resource="http://purl.org/dc/dcmitype/StillImage" />
        <dc:title></dc:title>
      </cc:Work>
    </rdf:RDF>
  </metadata>
  <g
     inkscape:label="Layer 1"
     inkscape:groupmode="layer"
     id="layer1"
     transform="translate(0,-852.36218)">
    <g
       transform="matrix(3.3765733,0,0,3.3755651,-691.13733,-177.98149)"
       style="font-size:40px;font-style:normal;font-variant:normal;font-weight:normal;font-stretch:normal;text-align:start;line-height:125%;letter-spacing:0px;word-spacing:0px;writing-mode:lr-tb;text-anchor:start;fill:#ff0000;fill-opacity:1;stroke:#ffffff;filter:url(#filter3991);font-family:Ubuntu Condensed;-inkscape-font-specification:'Ubuntu Condensed,'"
       id="flowRoot2985" />
    <path
       inkscape:export-filename="/public/Documentos/logozinlim-02.png"
       inkscape:export-ydpi="87.899307"
       inkscape:export-xdpi="87.899307"
       inkscape:connector-curvature="0"
       d="m 180.72564,963.88292 -22.84289,12.49202 -20.82751,-11.94356 -22.2431,-13.5306 -0.0672,-24.00356 0.5998,-26.02263 20.76027,-12.06002 22.84289,-12.49202 20.82753,11.94353 22.24309,13.53062 0.0672,24.00356 -0.59981,26.02264 z m 30.48278,7.21864 47.36439,0 c 6.48983,0 11.7145,5.2231 11.71449,11.71099 0,6.4879 -5.22466,11.711 -11.71449,11.711 l -47.36439,0 c -6.48983,0 -11.71449,-5.2231 -11.71449,-11.711 0,-6.48789 5.22466,-11.71099 11.71449,-11.71099 z m -17.06535,33.87824 29.28624,0 c 6.48984,0 11.7145,5.2231 11.7145,11.711 0,6.4879 -5.22466,11.711 -11.7145,11.711 l -29.28624,0 c -6.48983,0 -11.7145,-5.2231 -11.7145,-11.711 0,-6.4879 5.22467,-11.711 11.7145,-11.711 z m -101.246751,0 29.286251,0 c 6.48983,0 11.71451,5.2231 11.71451,11.711 0,6.4879 -5.22468,11.711 -11.71451,11.711 l -29.286251,0 c -6.489832,0 -11.714493,-5.2231 -11.714493,-11.711 0,-6.4879 5.224661,-11.711 11.714493,-11.711 z m -34.813123,-33.87824 47.364384,0 c 6.48983,0 11.7145,5.2231 11.7145,11.71099 0,6.4879 -5.22467,11.711 -11.7145,11.711 l -47.364384,0 c -6.48984,0 -11.714501,-5.2231 -11.714501,-11.711 0,-6.48789 5.224669,-11.71099 11.714501,-11.71099 z M 519.61682,935.47442 c 3.15146,-0.99012 6.57305,-1.80026 10.26478,-2.4304 3.69172,-0.72008 7.06829,-1.08012 10.12973,-1.08019 3.15142,7e-5 5.98774,0.40514 8.50896,1.2152 2.61118,0.8102 4.90725,2.16043 6.88821,4.05069 2.34104,-1.53022 4.8622,-2.79042 7.56353,-3.78064 2.70119,-0.99012 5.67257,-1.48518 8.91415,-1.48525 3.24144,7e-5 6.16781,0.49513 8.77909,1.48525 2.70119,0.90019 4.99726,2.47547 6.88821,4.7258 1.89082,2.25042 3.37651,5.31094 4.45707,9.18153 1.08044,3.78067 1.62066,8.50645 1.62076,14.17737 l 0,42.80212 -11.61541,0 0,-41.85696 c -7e-5,-7.02114 -0.81045,-12.152 -2.43113,-15.39258 -1.62082,-3.2405 -4.68226,-4.86078 -9.18428,-4.86081 -1.71084,4e-5 -3.46666,0.31494 -5.26746,0.94516 -1.71084,0.63015 -3.33159,1.48528 -4.86226,2.56542 0.72029,2.07041 1.26054,4.41079 1.62075,7.02118 0.36012,2.61046 0.54019,5.53596 0.54025,8.77647 l 0,42.80212 -11.61541,0 0,-41.85696 c -3e-5,-7.02114 -0.81041,-12.152 -2.43113,-15.39258 -1.62079,-3.2405 -4.68223,-4.86078 -9.18428,-4.86081 -2.34111,4e-5 -4.99736,0.45013 -7.96871,1.35023 l 0,60.76012 -11.61542,0 0,-68.86148 m -21.09514,68.86148 -11.61541,0 0,-70.88682 11.61541,0 0,70.88682 m -5.8077,-83.44392 c -2.07099,7e-5 -3.87182,-0.67505 -5.40252,-2.02534 -1.44069,-1.44015 -2.16101,-3.33047 -2.16101,-5.67095 0,-2.34031 0.72032,-4.18563 2.16101,-5.53592 1.5307,-1.44016 3.33153,-2.16027 5.40252,-2.16037 2.07095,10e-5 3.82677,0.72021 5.26745,2.16037 1.5307,1.35029 2.29604,3.19561 2.29607,5.53592 -3e-5,2.34048 -0.76537,4.2308 -2.29607,5.67095 -1.44068,1.35029 -3.1965,2.02541 -5.26745,2.02534 m -20.1497,84.79422 c -6.66313,-0.18 -11.43535,-1.8004 -14.31667,-4.8608 -2.88137,-3.15059 -4.32202,-8.1014 -4.32202,-14.85252 l 0,-84.38913 11.61541,-2.02533 0,86.68451 c -3e-5,3.15051 0.63027,5.4459 1.89088,6.88615 1.26058,1.35022 3.4666,2.29538 6.61809,2.83548 l -1.48569,9.72164 m -83.5259,-70.21177 c 3.33157,-0.99012 6.93322,-1.80027 10.80504,-2.43041 3.87178,-0.72007 7.42846,-1.08011 10.67001,-1.08018 3.51156,7e-5 6.70807,0.49512 9.58943,1.48524 2.88133,0.9002 5.31243,2.47548 7.29344,4.7258 2.07088,2.25042 3.64663,5.31095 4.72716,9.18153 1.17052,3.78068 1.75578,8.50646 1.75582,14.17738 l 0,42.80221 -11.61541,0 0,-41.85706 c -3e-5,-7.02114 -0.90043,-12.152 -2.70123,-15.39258 -1.8009,-3.2405 -5.17747,-4.86077 -10.12972,-4.8608 -2.61127,3e-5 -5.53761,0.45012 -8.77912,1.35022 l 0,60.76022 -11.61542,0 0,-68.86157 m -21.09513,68.86157 -11.61542,0 0,-70.88692 11.61542,0 0,70.88692 m -5.80771,-83.44402 c -2.07096,7e-5 -3.87182,-0.67504 -5.40252,-2.02533 -1.44065,-1.44016 -2.161,-3.33047 -2.16097,-5.67095 -3e-5,-2.34032 0.72032,-4.18563 2.16097,-5.53593 1.5307,-1.44015 3.33156,-2.16026 5.40252,-2.16037 2.07095,1.1e-4 3.82677,0.72022 5.26745,2.16037 1.5307,1.3503 2.29607,3.19562 2.29607,5.53593 0,2.34048 -0.76537,4.2308 -2.29607,5.67095 -1.44068,1.35028 -3.1965,2.0254 -5.26745,2.02533 m -21.9667,-0.54008 c -2.7013,4.77084 -5.71773,10.3968 -9.04923,16.87782 -3.33159,6.39113 -6.66312,13.00723 -9.99465,19.84832 -3.24154,6.75116 -6.34799,13.36727 -9.31934,19.84832 -2.88137,6.48108 -5.26749,12.15203 -7.15834,17.01285 l 36.46699,0 0,10.39679 -49.43303,0 0,-7.4263 c 1.35063,-3.60061 2.92634,-7.56126 4.72721,-11.88199 1.80082,-4.32072 3.73671,-8.77646 5.8077,-13.36723 2.07095,-4.68077 4.18692,-9.36152 6.34796,-14.04236 2.25102,-4.68075 4.45704,-9.22649 6.61808,-13.63728 2.25103,-4.41068 4.36699,-8.55138 6.34796,-12.42208 2.07092,-3.96058 3.9618,-7.42617 5.67265,-10.39673 l -33.76574,0 0,-10.39674 46.73178,0 0,9.58661"
       style="fill:#ff0000;fill-opacity:1;stroke:#ffffff;stroke-width:4.44177341;stroke-miterlimit:4;stroke-opacity:1;filter:url(#filter3101)"
       id="path3085"
       transform="translate(-2.4999999e-6,0)" />
    <g
       id="g3087"
       style="font-size:40px;font-style:normal;font-variant:normal;font-weight:normal;font-stretch:normal;text-align:start;line-height:125%;letter-spacing:0px;word-spacing:0px;writing-mode:lr-tb;text-anchor:start;fill:#ff0000;fill-opacity:1;stroke:#ffffff;filter:url(#filter3991);font-family:Ubuntu Condensed;-inkscape-font-specification:'Ubuntu Condensed,'"
       transform="matrix(3.3765733,0,0,3.3755651,-691.13733,-177.98149)" />
  </g>
</svg>
